<svg xmlns="http://www.w3.org/2000/svg" viewBox="0 0 512 512"><path d="M422.4 302.139c-31.467 0-57.067 25.6-57.067 57.067 0 31.461 25.6 57.061 57.067 57.061 31.472 0 57.067-25.6 57.067-57.061 0-31.467-25.6-57.067-57.067-57.067zm0 82.122c-13.824 0-25.067-11.243-25.067-25.061 0-13.824 11.243-25.067 25.067-25.067s25.067 11.248 25.067 25.067-11.243 25.061-25.067 25.061zM71.467 302.139c-31.467 0-57.067 25.6-57.067 57.067 0 31.461 25.6 57.061 57.067 57.061s57.067-25.6 57.067-57.061c-.001-31.467-25.601-57.067-57.067-57.067zm0 82.122c-13.824 0-25.067-11.243-25.067-25.061 0-13.824 11.248-25.067 25.067-25.067 13.824 0 25.067 11.248 25.067 25.067s-11.243 25.061-25.067 25.061z"/><path d="m510.235 226.56-41.067-80a15.998 15.998 0 0 0-14.235-8.693H361.6v32h83.563L480 237.733v93.733h-17.6v32H496c8.837 0 16-7.157 16-16v-113.6c0-2.538-.603-5.045-1.765-7.306zM219.2 331.467h162.133v32H219.2z"/><path d="M361.6 95.733H16c-8.837 0-16 7.163-16 16v235.733c0 8.837 7.163 16 16 16h16V127.733h313.6v219.733h32V111.733c0-8.837-7.163-16-16-16z"/><path d="M179.733 302.139c-31.467 0-57.067 25.6-57.067 57.067 0 31.461 25.6 57.061 57.067 57.061s57.067-25.6 57.067-57.061c0-31.467-25.6-57.067-57.067-57.067zm0 82.122c-13.824 0-25.067-11.243-25.067-25.061 0-13.824 11.243-25.067 25.067-25.067S204.8 345.381 204.8 359.2s-11.248 25.061-25.067 25.061z"/><path d="M110.933 331.467H140.8v32h-29.867zM361.6 217.867H496v32H361.6z"/></svg>